<svg xmlns="http://www.w3.org/2000/svg" width="1200" height="700" viewBox="0 0 1200 700" role="img" aria-label="Viewer Preview">
  <defs>
    <linearGradient id="bg" x1="0" x2="1" y1="0" y2="1">
      <stop offset="0%" stop-color="#e9f2ff"/>
      <stop offset="100%" stop-color="#f8fbff"/>
    </linearGradient>
  </defs>
  <rect width="1200" height="700" fill="url(#bg)"/>
  <rect x="40" y="40" width="1120" height="620" rx="16" fill="#ffffff" stroke="#dbe4f0"/>
  <text x="80" y="95" font-family="Segoe UI, Arial" font-size="30" fill="#0f172a" font-weight="700">Wayback PDF Diff Viewer</text>
  <rect x="80" y="125" width="320" height="42" rx="8" fill="#f2f6fc" stroke="#cfd8e6"/>
  <text x="94" y="152" font-family="Consolas, monospace" font-size="15" fill="#334155">old_capture.pdf</text>
  <rect x="420" y="125" width="320" height="42" rx="8" fill="#f2f6fc" stroke="#cfd8e6"/>
  <text x="434" y="152" font-family="Consolas, monospace" font-size="15" fill="#334155">new_capture.pdf</text>
  <rect x="760" y="125" width="120" height="42" rx="8" fill="#f2f6fc" stroke="#cfd8e6"/>
  <text x="790" y="152" font-family="Segoe UI, Arial" font-size="15" fill="#334155">block</text>
  <rect x="900" y="125" width="160" height="42" rx="8" fill="#0a66c2"/>
  <text x="940" y="152" font-family="Segoe UI, Arial" font-size="15" fill="#ffffff" font-weight="600">Compare</text>
  <rect x="80" y="190" width="1040" height="40" rx="8" fill="#eef6ff" stroke="#c9defa"/>
  <text x="95" y="216" font-family="Segoe UI, Arial" font-size="15" fill="#0f172a">changed=true  added=4  removed=2  changed=2</text>
  <rect x="80" y="250" width="1040" height="370" rx="10" fill="#0e1116"/>
  <text x="100" y="285" font-family="Consolas, monospace" font-size="15" fill="#91a5be">--- old_capture</text>
  <text x="100" y="310" font-family="Consolas, monospace" font-size="15" fill="#91a5be">+++ new_capture</text>
  <text x="100" y="340" font-family="Consolas, monospace" font-size="15" fill="#f87171">- Line B</text>
  <text x="100" y="365" font-family="Consolas, monospace" font-size="15" fill="#4ade80">+ Line C</text>
  <text x="100" y="405" font-family="Consolas, monospace" font-size="15" fill="#cbd5e1">(Replace this with a real screenshot later)</text>
</svg>
